<svg width="158" height="42" viewBox="0 0 158 42" fill="none" xmlns="http://www.w3.org/2000/svg">
<path d="M17.1179 32.9803V23.8714L27.9803 27.9661V32.9904L17.1179 32.9803ZM4.00969 27.9712L15.0881 23.8664V32.9803H4.00969V27.9712ZM21.1273 18.0784L16.0679 16.1743L10.8728 18.0985V15.1996L16.0679 13.2853L21.1474 15.1996L21.1273 18.0784ZM16.103 21.3341L8.78272 24.0472V21.0327L16.0679 18.3297L23.2123 21.0226V24.0121L16.103 21.3341ZM27.9803 9.00969V25.8107L25.227 24.7707V19.6259L23.147 18.8421V13.8179L16.0679 11.1299L8.85306 13.7978V18.822L6.77302 19.6209V24.7958L4.00969 25.8007V9.00969H27.9803ZM29.99 7H2V35.0001H30.0001L29.99 7Z" fill="#00609A"/>
<path d="M49.424 7.608C50.7147 7.608 51.7013 7.91733 52.384 8.536C53.0667 9.144 53.408 9.98133 53.408 11.048C53.408 12.1147 53.0667 12.9573 52.384 13.576C51.7013 14.184 50.7147 14.488 49.424 14.488H46.992V19H45.52V7.608H49.424ZM46.992 13.208H49.312C50.1653 13.208 50.8053 13.0213 51.232 12.648C51.6693 12.264 51.888 11.7307 51.888 11.048C51.888 10.3653 51.6693 9.83733 51.232 9.464C50.8053 9.08 50.1653 8.888 49.312 8.888H46.992V13.208ZM58.8834 10.792C59.118 10.792 59.3154 10.8133 59.4754 10.856V12.12C59.1234 12.088 58.9367 12.072 58.9154 12.072C58.1474 12.072 57.5554 12.312 57.1394 12.792C56.7234 13.272 56.5154 13.96 56.5154 14.856V19H55.1074V10.872H56.4514V12.12H56.4834C57.0167 11.2347 57.8167 10.792 58.8834 10.792ZM63.8714 10.648C65.066 10.648 66.01 11.032 66.7034 11.8C67.3967 12.568 67.7434 13.6133 67.7434 14.936C67.7434 16.2587 67.3967 17.304 66.7034 18.072C66.01 18.84 65.066 19.224 63.8714 19.224C62.6767 19.224 61.7327 18.84 61.0394 18.072C60.3567 17.304 60.0154 16.2587 60.0154 14.936C60.0154 13.6133 60.3567 12.568 61.0394 11.8C61.7327 11.032 62.6767 10.648 63.8714 10.648ZM63.8714 11.8C63.1354 11.8 62.554 12.0827 62.1274 12.648C61.7007 13.2027 61.4874 13.9653 61.4874 14.936C61.4874 15.9067 61.7007 16.6747 62.1274 17.24C62.554 17.7947 63.1354 18.072 63.8714 18.072C64.618 18.072 65.2047 17.7947 65.6314 17.24C66.058 16.6747 66.2714 15.9067 66.2714 14.936C66.2714 13.9653 66.058 13.2027 65.6314 12.648C65.2047 12.0827 64.618 11.8 63.8714 11.8ZM75.1545 19V17.816H75.1225C74.8985 18.2427 74.5625 18.5787 74.1145 18.824C73.6772 19.0693 73.1812 19.192 72.6265 19.192C71.9438 19.192 71.3412 19.016 70.8185 18.664C70.3065 18.312 69.9118 17.816 69.6345 17.176C69.3572 16.5253 69.2185 15.7733 69.2185 14.92C69.2185 14.0667 69.3572 13.32 69.6345 12.68C69.9118 12.0293 70.3065 11.5333 70.8185 11.192C71.3305 10.84 71.9278 10.664 72.6105 10.664C73.1545 10.664 73.6452 10.7867 74.0825 11.032C74.5305 11.2667 74.8665 11.5867 75.0905 11.992H75.1225V7.608H76.5305V19H75.1545ZM72.9785 11.8C72.2852 11.8 71.7305 12.0827 71.3145 12.648C70.8985 13.2133 70.6905 13.9707 70.6905 14.92C70.6905 15.8693 70.8985 16.632 71.3145 17.208C71.7305 17.7733 72.2852 18.056 72.9785 18.056C73.6505 18.056 74.1892 17.7733 74.5945 17.208C74.9998 16.6427 75.2025 15.88 75.2025 14.92C75.2025 13.96 74.9998 13.2027 74.5945 12.648C74.1892 12.0827 73.6505 11.8 72.9785 11.8ZM81.8773 19.176C80.9386 19.176 80.2133 18.8933 79.7013 18.328C79.1999 17.7627 78.9493 16.9307 78.9493 15.832V10.872H80.3573V15.72C80.3573 16.5413 80.5173 17.1333 80.8373 17.496C81.1573 17.848 81.6213 18.024 82.2293 18.024C82.8266 18.024 83.3279 17.8053 83.7333 17.368C84.1386 16.92 84.3413 16.3067 84.3413 15.528V10.872H85.7493V19H84.3893V17.928H84.3573C84.1013 18.312 83.7546 18.616 83.3173 18.84C82.8906 19.064 82.4106 19.176 81.8773 19.176ZM91.48 10.648C92.12 10.648 92.6907 10.7813 93.192 11.048C93.704 11.304 94.1093 11.6667 94.408 12.136C94.7173 12.6053 94.8987 13.144 94.952 13.752H93.48C93.4267 13.176 93.2133 12.7067 92.84 12.344C92.4773 11.9813 92.0187 11.8 91.464 11.8C90.7493 11.8 90.184 12.0827 89.768 12.648C89.352 13.2027 89.144 13.9653 89.144 14.936C89.144 15.9067 89.3467 16.6747 89.752 17.24C90.168 17.7947 90.7387 18.072 91.464 18.072C92.0187 18.072 92.4773 17.88 92.84 17.496C93.2133 17.1013 93.4267 16.6053 93.48 16.008H94.952C94.8987 16.6267 94.7227 17.1813 94.424 17.672C94.1253 18.152 93.72 18.5307 93.208 18.808C92.7067 19.0853 92.1307 19.224 91.48 19.224C90.7013 19.224 90.024 19.0533 89.448 18.712C88.872 18.36 88.4293 17.864 88.12 17.224C87.8107 16.5733 87.656 15.8107 87.656 14.936C87.656 14.0613 87.8107 13.304 88.12 12.664C88.4293 12.0133 88.872 11.5173 89.448 11.176C90.024 10.824 90.7013 10.648 91.48 10.648ZM99.6589 17.896C99.8829 17.896 100.075 17.8693 100.235 17.816V18.968C100 19.032 99.7015 19.064 99.3389 19.064C98.5602 19.064 97.9949 18.8827 97.6429 18.52C97.3015 18.1573 97.1309 17.56 97.1309 16.728V11.992H95.7229V10.872H97.1309V8.904H98.5389V10.872H100.155V11.992H98.5389V16.584C98.5389 17.0533 98.6242 17.3893 98.7949 17.592C98.9655 17.7947 99.2535 17.896 99.6589 17.896ZM105.664 7.608C107.552 7.608 109.008 8.104 110.032 9.096C111.056 10.0773 111.568 11.48 111.568 13.304C111.568 15.128 111.056 16.536 110.032 17.528C109.008 18.5093 107.552 19 105.664 19H102.192V7.608H105.664ZM103.664 17.688H105.648C107.067 17.688 108.149 17.3147 108.896 16.568C109.643 15.8213 110.016 14.7333 110.016 13.304C110.016 11.8747 109.643 10.7867 108.896 10.04C108.149 9.29333 107.067 8.92 105.648 8.92H103.664V17.688ZM116.903 10.648C118.097 10.648 119.041 11.032 119.735 11.8C120.428 12.568 120.775 13.6133 120.775 14.936C120.775 16.2587 120.428 17.304 119.735 18.072C119.041 18.84 118.097 19.224 116.903 19.224C115.708 19.224 114.764 18.84 114.071 18.072C113.388 17.304 113.047 16.2587 113.047 14.936C113.047 13.6133 113.388 12.568 114.071 11.8C114.764 11.032 115.708 10.648 116.903 10.648ZM116.903 11.8C116.167 11.8 115.585 12.0827 115.159 12.648C114.732 13.2027 114.519 13.9653 114.519 14.936C114.519 15.9067 114.732 16.6747 115.159 17.24C115.585 17.7947 116.167 18.072 116.903 18.072C117.649 18.072 118.236 17.7947 118.663 17.24C119.089 16.6747 119.303 15.9067 119.303 14.936C119.303 13.9653 119.089 13.2027 118.663 12.648C118.236 12.0827 117.649 11.8 116.903 11.8ZM126.074 10.648C126.714 10.648 127.284 10.7813 127.786 11.048C128.298 11.304 128.703 11.6667 129.002 12.136C129.311 12.6053 129.492 13.144 129.546 13.752H128.074C128.02 13.176 127.807 12.7067 127.434 12.344C127.071 11.9813 126.612 11.8 126.058 11.8C125.343 11.8 124.778 12.0827 124.362 12.648C123.946 13.2027 123.738 13.9653 123.738 14.936C123.738 15.9067 123.94 16.6747 124.346 17.24C124.762 17.7947 125.332 18.072 126.058 18.072C126.612 18.072 127.071 17.88 127.434 17.496C127.807 17.1013 128.02 16.6053 128.074 16.008H129.546C129.492 16.6267 129.316 17.1813 129.018 17.672C128.719 18.152 128.314 18.5307 127.802 18.808C127.3 19.0853 126.724 19.224 126.074 19.224C125.295 19.224 124.618 19.0533 124.042 18.712C123.466 18.36 123.023 17.864 122.714 17.224C122.404 16.5733 122.25 15.8107 122.25 14.936C122.25 14.0613 122.404 13.304 122.714 12.664C123.023 12.0133 123.466 11.5173 124.042 11.176C124.618 10.824 125.295 10.648 126.074 10.648ZM136.429 19L132.829 14.936H132.797V19H131.389V7.608H132.797V14.248H132.829L136.109 10.872H137.853L134.205 14.552L138.285 19H136.429Z" fill="black"/>
<path d="M51.602 38.174V39H45.414V29.032H46.324V38.174H51.602ZM52.9003 39V31.888H53.7683V39H52.9003ZM52.9003 30.264V29.032H53.7683V30.264H52.9003ZM56.9818 32.938C57.1685 32.5647 57.4625 32.266 57.8638 32.042C58.2652 31.818 58.7178 31.706 59.2218 31.706C59.8285 31.706 60.3558 31.86 60.8038 32.168C61.2612 32.4667 61.6112 32.9007 61.8538 33.47C62.0965 34.03 62.2178 34.6833 62.2178 35.43C62.2178 36.1767 62.0965 36.8347 61.8538 37.404C61.6112 37.964 61.2612 38.398 60.8038 38.706C60.3558 39.0047 59.8285 39.154 59.2218 39.154C58.7178 39.154 58.2652 39.042 57.8638 38.818C57.4625 38.594 57.1685 38.2953 56.9818 37.922H56.9538V39H56.0858V29.032H56.9538V32.938H56.9818ZM59.0818 32.434C58.4192 32.434 57.8918 32.7093 57.4998 33.26C57.1078 33.8013 56.9118 34.5247 56.9118 35.43C56.9118 36.3353 57.1078 37.0633 57.4998 37.614C57.8918 38.1553 58.4192 38.426 59.0818 38.426C59.7632 38.426 60.3045 38.1553 60.7058 37.614C61.1072 37.0727 61.3078 36.3447 61.3078 35.43C61.3078 34.5153 61.1072 33.7873 60.7058 33.246C60.3045 32.7047 59.7632 32.434 59.0818 32.434ZM67.0538 31.832C67.2312 31.832 67.3898 31.846 67.5298 31.874V32.7C67.3805 32.6813 67.2312 32.672 67.0818 32.672C66.3725 32.672 65.8265 32.896 65.4438 33.344C65.0612 33.792 64.8698 34.4267 64.8698 35.248V39H64.0018V31.888H64.8558V33.008H64.8838C65.1172 32.6253 65.4205 32.336 65.7938 32.14C66.1672 31.9347 66.5872 31.832 67.0538 31.832ZM70.9219 31.706C71.7526 31.706 72.4012 31.9347 72.8679 32.392C73.3439 32.8493 73.5819 33.5307 73.5819 34.436V37.25C73.5819 37.922 73.6332 38.5053 73.7359 39H72.9239C72.8586 38.6827 72.8259 38.3233 72.8259 37.922H72.7979C72.3126 38.734 71.4679 39.14 70.2639 39.14C69.5452 39.14 68.9619 38.9487 68.5139 38.566C68.0752 38.1833 67.8559 37.6933 67.8559 37.096C67.8559 36.4893 68.0566 36.0133 68.4579 35.668C68.8686 35.3227 69.5686 35.0707 70.5579 34.912C71.2392 34.8 71.9672 34.716 72.7419 34.66V34.324C72.7419 33.6893 72.5786 33.218 72.2519 32.91C71.9252 32.602 71.4819 32.448 70.9219 32.448C70.3432 32.448 69.8952 32.5927 69.5779 32.882C69.2606 33.162 69.0879 33.5447 69.0599 34.03H68.1499C68.1966 33.3393 68.4579 32.7793 68.9339 32.35C69.4192 31.9207 70.0819 31.706 70.9219 31.706ZM72.7419 35.388C72.1352 35.4347 71.4446 35.5187 70.6699 35.64C69.9699 35.7427 69.4799 35.9013 69.1999 36.116C68.9199 36.3307 68.7799 36.6387 68.7799 37.04C68.7799 37.46 68.9246 37.796 69.2139 38.048C69.5126 38.2907 69.9232 38.412 70.4459 38.412C70.7726 38.412 71.0759 38.3607 71.3559 38.258C71.6452 38.146 71.8879 37.9873 72.0839 37.782C72.3359 37.5207 72.5086 37.264 72.6019 37.012C72.6952 36.7507 72.7419 36.3913 72.7419 35.934V35.388ZM78.8937 31.832C79.071 31.832 79.2297 31.846 79.3697 31.874V32.7C79.2204 32.6813 79.071 32.672 78.9217 32.672C78.2124 32.672 77.6664 32.896 77.2837 33.344C76.901 33.792 76.7097 34.4267 76.7097 35.248V39H75.8417V31.888H76.6957V33.008H76.7237C76.957 32.6253 77.2604 32.336 77.6337 32.14C78.007 31.9347 78.427 31.832 78.8937 31.832ZM83.0472 39.336C82.7952 39.9613 82.5479 40.4373 82.3052 40.764C82.0625 41.0907 81.7872 41.3193 81.4792 41.45C81.1712 41.5807 80.7792 41.646 80.3032 41.646C80.0979 41.646 79.9252 41.6273 79.7852 41.59V40.82C79.9252 40.8573 80.0932 40.876 80.2892 40.876C80.6439 40.876 80.9285 40.8247 81.1432 40.722C81.3579 40.6287 81.5445 40.4513 81.7032 40.19C81.8712 39.9287 82.0579 39.532 82.2632 39L79.4632 31.888H80.4012L82.7112 37.894H82.7392L85.0492 31.888H85.9872L83.0472 39.336Z" fill="black"/>
</svg>
