<svg width="28" height="28" viewBox="0 0 28 28" fill="none" xmlns="http://www.w3.org/2000/svg">
<path d="M15.1179 25.9803V16.8714L25.9803 20.9661V25.9904L15.1179 25.9803ZM2.00969 20.9712L13.0881 16.8664V25.9803H2.00969V20.9712ZM19.1273 11.0784L14.0679 9.17426L8.8728 11.0985V8.19955L14.0679 6.28532L19.1474 8.19955L19.1273 11.0784ZM14.103 14.3341L6.78272 17.0472V14.0327L14.0679 11.3297L21.2123 14.0226V17.0121L14.103 14.3341ZM25.9803 2.00969V18.8107L23.227 17.7707V12.6259L21.147 11.8421V6.81789L14.0679 4.12992L6.85306 6.79779V11.822L4.77302 12.6209V17.7958L2.00969 18.8007V2.00969H25.9803ZM27.99 0H0V28.0001H28.0001L27.99 0Z" fill="#00609A"/>
</svg>
